<?xml version="1.0" encoding="utf-8"?>
<!-- Generator: Adobe Illustrator 25.1.0, SVG Export Plug-In . SVG Version: 6.00 Build 0)  -->
<svg version="1.1" id="Режим_изоляции"
	 xmlns="http://www.w3.org/2000/svg" xmlns:xlink="http://www.w3.org/1999/xlink" x="0px" y="0px" viewBox="0 0 18.45 17.47"
	 style="enable-background:new 0 0 18.45 17.47;" xml:space="preserve">
<path fill="#fff" d="M10.28,8.74l4.47-4.47c0.29-0.29,0.29-0.77,0-1.06s-0.77-0.29-1.06,0L9.22,7.68L4.75,3.21c-0.29-0.29-0.77-0.29-1.06,0
	s-0.29,0.77,0,1.06l4.47,4.47l-4.47,4.47c-0.29,0.29-0.29,0.77,0,1.06s0.77,0.29,1.06,0L9.22,9.8l4.47,4.47
	c0.29,0.29,0.77,0.29,1.06,0s0.29-0.77,0-1.06L10.28,8.74z"/>
</svg>
