<?xml version="1.0" encoding="utf-8"?>
<!-- Generator: Adobe Illustrator 25.1.0, SVG Export Plug-In . SVG Version: 6.00 Build 0)  -->
<svg version="1.1" id="Layer_1" xmlns="http://www.w3.org/2000/svg" xmlns:xlink="http://www.w3.org/1999/xlink" x="0px" y="0px"
	 viewBox="0 0 29.11 23.9" style="enable-background:new 0 0 29.11 23.9;" xml:space="preserve">
<path fill="#fff" d="M4.29,12.25h14v-1.5h-14V12.25z M3.76,12.03l3.01,3l1.06-1.06l-3.02-3L3.76,12.03z M6.78,7.97l-3.01,3l1.06,1.06l3.02-3
	L6.78,7.97z M18.29,12.25c0.41,0,0.75-0.34,0.75-0.75c0-0.41-0.34-0.75-0.75-0.75V12.25z M4.29,10.75c-0.41,0-0.75,0.34-0.75,0.75
	c0,0.41,0.34,0.75,0.75,0.75V10.75z M6.78,15.03c0.29,0.29,0.77,0.29,1.06,0s0.29-0.77,0-1.06L6.78,15.03z M4.82,10.97
	c-0.29-0.29-0.77-0.29-1.06,0c-0.29,0.29-0.29,0.77,0,1.06L4.82,10.97z M3.76,10.97c-0.29,0.29-0.29,0.77,0,1.06
	c0.29,0.29,0.77,0.29,1.06,0L3.76,10.97z M7.83,9.03c0.29-0.29,0.29-0.77,0-1.06c-0.29-0.29-0.77-0.29-1.06,0L7.83,9.03z"/>
<path fill="#fff" d="M14.29,3.75c-2.62,0-4.75,2.13-4.75,4.75h1.5c0-1.79,1.46-3.25,3.25-3.25V3.75z M18.29,3.75h-4v1.5h4V3.75z M23.04,8.5
	c0-2.62-2.13-4.75-4.75-4.75v1.5c1.79,0,3.25,1.46,3.25,3.25H23.04z M23.04,14.5v-6h-1.5v6H23.04z M18.29,19.25
	c2.62,0,4.75-2.13,4.75-4.75h-1.5c0,1.79-1.46,3.25-3.25,3.25V19.25z M14.29,19.25h4v-1.5h-4V19.25z M9.54,14.5
	c0,2.62,2.13,4.75,4.75,4.75v-1.5c-1.79,0-3.25-1.46-3.25-3.25H9.54z M9.54,8.5c0,0.41,0.34,0.75,0.75,0.75
	c0.41,0,0.75-0.34,0.75-0.75H9.54z M11.04,14.5c0-0.41-0.34-0.75-0.75-0.75c-0.41,0-0.75,0.34-0.75,0.75H11.04z"/>
</svg>
