<?xml version="1.0" encoding="utf-8"?>
<!-- Generator: Adobe Illustrator 25.1.0, SVG Export Plug-In . SVG Version: 6.00 Build 0)  -->
<svg version="1.1" id="Слой_1" xmlns="http://www.w3.org/2000/svg" xmlns:xlink="http://www.w3.org/1999/xlink" x="0px" y="0px"
	 viewBox="0 0 19.05 20.18" style="enable-background:new 0 0 19.05 20.18;" xml:space="preserve">
<path fill="#fff" d="M8.6,14.81c-1.44,0-2.82-0.58-3.82-1.61l-1.07,1.05c1.29,1.32,3.05,2.06,4.9,2.06V14.81z M12.42,13.2
	c-1,1.03-2.38,1.61-3.82,1.61v1.5c1.84,0,3.61-0.74,4.9-2.06L12.42,13.2z M13.91,10.37c-0.21,1.07-0.72,2.05-1.49,2.83l1.07,1.05
	c0.97-0.99,1.62-2.24,1.89-3.6L13.91,10.37z M13.6,7.17c0.41,1.01,0.52,2.13,0.31,3.2l1.47,0.29c0.27-1.36,0.13-2.77-0.39-4.05
	L13.6,7.17z M11.6,4.69c0.9,0.61,1.59,1.47,2,2.48l1.39-0.56c-0.52-1.28-1.4-2.38-2.54-3.15L11.6,4.69z M5.6,4.69
	c1.81-1.24,4.19-1.24,6,0l0.85-1.24c-2.32-1.58-5.37-1.58-7.69,0L5.6,4.69z M3.6,7.17c0.41-1.01,1.1-1.87,2-2.48L4.75,3.45
	C3.61,4.23,2.73,5.33,2.21,6.61L3.6,7.17z M3.29,10.37c-0.21-1.07-0.1-2.19,0.31-3.2L2.21,6.6C1.69,7.89,1.55,9.3,1.82,10.66
	L3.29,10.37z M4.78,13.2c-0.76-0.78-1.28-1.76-1.49-2.83l-1.47,0.29c0.26,1.36,0.92,2.61,1.89,3.6L4.78,13.2z M12.96,13.73
	l-0.54-0.52l0,0L12.96,13.73z M14.65,10.51l-0.74-0.14l0,0L14.65,10.51z M14.29,6.89l-0.7,0.28l0,0L14.29,6.89z M12.02,4.07
	L11.6,4.69l0,0L12.02,4.07z M5.18,4.07L5.6,4.69l0,0L5.18,4.07z M2.91,6.89L3.6,7.17l0,0L2.91,6.89z M2.56,10.51l0.74-0.14l0,0
	L2.56,10.51z"/>
<path fill="#fff" d="M12.52,14.16l3.39,3.38l1.06-1.06l-3.39-3.38L12.52,14.16z M8.77,6.71c0.72-0.08,1.41,0.33,1.69,1l1.38-0.58
	c-0.54-1.28-1.85-2.05-3.23-1.9L8.77,6.71z M15.91,17.54c0.29,0.29,0.77,0.29,1.06,0c0.29-0.29,0.29-0.77,0-1.06L15.91,17.54z
	 M13.58,13.1c-0.29-0.29-0.77-0.29-1.06,0c-0.29,0.29-0.29,0.77,0,1.06L13.58,13.1z M10.46,7.7c0.16,0.38,0.6,0.56,0.98,0.4
	c0.38-0.16,0.56-0.6,0.4-0.98L10.46,7.7z M8.61,5.22C8.2,5.26,7.9,5.63,7.94,6.04s0.41,0.71,0.82,0.67L8.61,5.22z"/>
</svg>
