<?xml version="1.0" encoding="utf-8"?>
<!-- Generator: Adobe Illustrator 25.1.0, SVG Export Plug-In . SVG Version: 6.00 Build 0)  -->
<svg version="1.1" id="Layer_1" xmlns="http://www.w3.org/2000/svg" xmlns:xlink="http://www.w3.org/1999/xlink" x="0px" y="0px"
	 viewBox="0 0 159.21 36.84" style="enable-background:new 0 0 159.21 36.84;" xml:space="preserve">
<g>
	<path fill="#fff" d="M15.69,18.31l0.22-7.75l0.89-0.1c0.59-0.05,1.19-0.1,1.79-0.16c0.6-0.06,0.92-0.08,0.95-0.08l-0.07,8.16
		c0.22-0.45,0.51-1.03,0.86-1.74c0.35-0.71,0.71-1.42,1.07-2.11c0.36-0.7,0.7-1.36,1.03-1.99c0.33-0.63,0.6-1.16,0.82-1.58
		c0.22-0.42,0.33-0.64,0.35-0.66l3.5,1.44l-4.9,7.37c0.06,0.06,0.61,0.54,1.64,1.43c1.03,0.89,2.03,1.75,2.99,2.59
		s1.42,1.26,1.39,1.26c-0.1,0.05-0.72,0.46-1.87,1.24c-1.15,0.78-1.75,1.19-1.8,1.24l-1.78-2.21c-1.79-2.27-2.71-3.45-2.76-3.53
		c-0.03,0.19-0.17,1.05-0.41,2.57c0.02,0.48,0.02,1.09,0.02,1.82v1.46h-4.2c0-0.42,0.01-0.74,0.02-0.98l0.07-2.5
		c-0.16-1.23-0.27-2.02-0.34-2.35l-4.51,5.71c-1.1-0.82-2.31-1.64-3.62-2.47c0.18-0.19,0.74-0.71,1.69-1.56
		c0.95-0.85,1.89-1.67,2.82-2.47c0.93-0.8,1.41-1.22,1.44-1.25l-4.9-7.37l3.5-1.44C11.88,10.93,13.24,13.61,15.69,18.31z"/>
	<path fill="#fff" d="M32.34,26.97h-3.38c0-0.19,0.04-2.12,0.12-5.78c0.08-3.66,0.12-5.63,0.12-5.9l3.36-0.26c0,0.53-0.02,1.8-0.06,3.83
		c-0.04,2.02-0.06,3.28-0.06,3.78l4.68-7.39l2.83-0.22c0.03,1.2,0.04,3.23,0.01,6.08s-0.03,4.81-0.01,5.87h-3.36
		c0-1.44,0.02-3.57,0.05-6.38c-0.13,0.18-0.83,1.23-2.1,3.16C33.26,25.67,32.53,26.75,32.34,26.97z"/>
	<path fill="#fff" d="M48.2,23.57c0-0.8-0.78-1.2-2.33-1.2c-0.22,0-0.46,0.02-0.72,0.05l-0.41,0.05v-2.71c0.32,0.06,0.69,0.1,1.1,0.1
		c0.61,0,1.15-0.11,1.63-0.32c0.48-0.22,0.72-0.52,0.72-0.9c0-0.78-0.51-1.18-1.54-1.18c-0.64,0-1.35,0.17-2.12,0.52
		c-0.78,0.34-1.36,0.75-1.76,1.21l-1.68-2.54c1.78-1.18,3.74-1.78,5.9-1.78c1.6,0,2.83,0.32,3.7,0.96c0.86,0.64,1.3,1.45,1.3,2.42
		c0,1.23-0.72,2.19-2.16,2.88c1.44,0.69,2.16,1.63,2.16,2.83c0,0.98-0.43,1.78-1.28,2.42c-0.86,0.64-2.06,0.96-3.61,0.96
		c-0.93,0-1.86-0.13-2.8-0.38s-1.63-0.5-2.08-0.72c-0.45-0.22-0.82-0.44-1.13-0.65l1.68-2.54c0.4,0.46,0.99,0.86,1.76,1.2
		c0.78,0.34,1.48,0.5,2.12,0.5C47.68,24.74,48.19,24.35,48.2,23.57z"/>
	<path fill="#fff" d="M53.48,15.41l3.1-0.29c0,2.35,0.01,4.14,0.02,5.35l3.89-0.07l0.14-5.11L63.59,15c0.03,5.38,0.05,9.37,0.05,11.98H60.3
		l0.1-3.53l-3.79-0.07c0,0.4,0,1,0.01,1.79c0.01,0.79,0.01,1.4,0.01,1.81h-3.48C53.37,22.43,53.48,18.57,53.48,15.41z"/>
	<path fill="#fff" d="M70.69,27.33c-1.73,0-3.12-0.54-4.19-1.62c-1.06-1.08-1.6-2.53-1.6-4.36c0-1.95,0.58-3.48,1.75-4.6
		c1.17-1.11,2.46-1.67,3.89-1.67c1.22,0,2.27,0.33,3.17,1c0.9,0.66,1.54,1.46,1.94,2.4c0.4,0.94,0.6,1.92,0.6,2.94
		c0,0.16-0.02,0.37-0.05,0.62l-3.05,0.19c-0.5,0.03-1.32,0.09-2.47,0.17c-1.15,0.08-1.96,0.14-2.42,0.17
		c0.27,0.62,0.58,1.08,0.91,1.36c0.34,0.28,0.82,0.42,1.46,0.42c1.28,0,2.48-0.32,3.6-0.96l1.03,2.95
		C73.87,27.01,72.34,27.33,70.69,27.33z M70.74,17.85h-0.1c-0.82,0.03-1.42,0.31-1.8,0.83c-0.38,0.52-0.6,1.12-0.65,1.81
		c0.27-0.02,0.99-0.07,2.16-0.17l2.98-0.22c-0.03-0.21-0.1-0.42-0.19-0.64s-0.24-0.46-0.42-0.72c-0.18-0.26-0.45-0.48-0.79-0.65
		C71.58,17.94,71.19,17.85,70.74,17.85z"/>
	<path fill="#fff" d="M82.98,15.17c1.14,0,2.09,0.13,2.86,0.4c0.77,0.26,1.32,0.54,1.66,0.83c-0.08,0.42-0.26,1.39-0.53,2.93
		c-1.46-0.69-2.7-1.03-3.72-1.03c-1.73,0-2.59,1.02-2.59,3.05c0,0.96,0.22,1.69,0.66,2.18c0.44,0.5,1.06,0.74,1.86,0.74
		c0.94,0,2.21-0.34,3.79-1.03l0.58,2.88c-0.14,0.14-0.37,0.3-0.67,0.47s-0.81,0.34-1.52,0.52s-1.5,0.26-2.36,0.26
		c-1.63,0-2.94-0.51-3.94-1.54c-0.99-1.02-1.52-2.53-1.58-4.51c0.03-2,0.54-3.52,1.54-4.57C79.99,15.69,81.32,15.17,82.98,15.17z"/>
	<path fill="#fff" d="M89.1,15.19l1.66-0.05l3.67-0.07l5.33-0.1v0.86v2.11l-3.7,0.22c0,1.9,0.02,4.84,0.05,8.81h-3.79l0.34-8.64h-0.02l-3.7,0.22
		L89.1,15.19z"/>
	<path fill="#fff" d="M100.74,21.26c0-1.7,0.57-3.14,1.7-4.33c1.14-1.19,2.5-1.79,4.1-1.79c1.6,0,2.97,0.6,4.1,1.79c1.14,1.19,1.7,2.64,1.7,4.33
		c0,1.68-0.57,3.12-1.7,4.31c-1.14,1.19-2.5,1.79-4.1,1.79c-1.6,0-2.97-0.6-4.1-1.79C101.31,24.38,100.74,22.94,100.74,21.26z
		 M103.84,21.33c0,0.83,0.27,1.53,0.8,2.1c0.54,0.57,1.2,0.85,1.98,0.85c0.82,0,1.5-0.28,2.04-0.85c0.54-0.57,0.82-1.27,0.82-2.1
		c0-0.86-0.27-1.59-0.82-2.17c-0.54-0.58-1.22-0.88-2.04-0.88c-0.78,0-1.44,0.3-1.98,0.89C104.1,19.77,103.84,20.49,103.84,21.33z"
		/>
	<path fill="#fff" d="M117.13,15.21c-0.02,0.27-0.02,0.84-0.02,1.7c0.86-1.2,2-1.8,3.41-1.8c1.28,0,2.38,0.59,3.29,1.78
		c0.91,1.18,1.37,2.62,1.37,4.3c0,1.7-0.46,3.14-1.38,4.33c-0.92,1.19-2.04,1.79-3.35,1.79c-1.42,0-2.54-0.56-3.36-1.68l0.14,6.34
		h-3.67c0-1.49,0-4.22,0.01-8.21c0.01-3.98,0.01-6.71,0.01-8.18c0.21-0.02,0.73-0.07,1.57-0.17
		C115.99,15.31,116.65,15.25,117.13,15.21z M116.92,21.26c0,0.82,0.25,1.51,0.76,2.08c0.5,0.57,1.12,0.85,1.84,0.85
		c0.72,0,1.33-0.28,1.84-0.85c0.5-0.57,0.76-1.26,0.76-2.08c0-0.86-0.25-1.58-0.76-2.16c-0.5-0.58-1.12-0.86-1.84-0.86
		c-0.72,0-1.33,0.29-1.84,0.86C117.17,19.68,116.92,20.4,116.92,21.26z"/>
	<path fill="#fff" d="M129.8,26.97h-3.38c0-0.19,0.04-2.12,0.12-5.78c0.08-3.66,0.12-5.63,0.12-5.9l3.36-0.26c0,0.53-0.02,1.8-0.06,3.83
		c-0.04,2.02-0.06,3.28-0.06,3.78l4.68-7.39l2.83-0.22c0.03,1.2,0.04,3.23,0.01,6.08s-0.03,4.81-0.01,5.87h-3.36
		c0-1.44,0.02-3.57,0.05-6.38c-0.13,0.18-0.83,1.23-2.1,3.16C130.73,25.67,130,26.75,129.8,26.97z"/>
	<path fill="#fff" d="M142.09,26.97h-3.38c0-0.19,0.04-2.12,0.12-5.78c0.08-3.66,0.12-5.63,0.12-5.9l3.36-0.26c0,0.53-0.02,1.8-0.06,3.83
		c-0.04,2.02-0.06,3.28-0.06,3.78l4.68-7.39l2.83-0.22c0.03,1.2,0.04,3.23,0.01,6.08s-0.03,4.81-0.01,5.87h-3.36
		c0-1.44,0.02-3.57,0.05-6.38c-0.13,0.18-0.83,1.23-2.1,3.16C143.02,25.67,142.28,26.75,142.09,26.97z"/>
</g>
</svg>
