<?xml version="1.0" encoding="utf-8"?>
<!-- Generator: Adobe Illustrator 25.1.0, SVG Export Plug-In . SVG Version: 6.00 Build 0)  -->
<svg version="1.1" id="Layer_1" xmlns="http://www.w3.org/2000/svg" xmlns:xlink="http://www.w3.org/1999/xlink" x="0px" y="0px"
	 viewBox="0 0 623.62 623.62" style="enable-background:new 0 0 623.62 623.62;" xml:space="preserve">
<style type="text/css">
	.st0{fill:#2D5CAA;}
	.st1{fill:#FFFFFF;}
	.st2{fill:#4A94D0;}
</style>
<circle class="st0" cx="311.81" cy="311.81" r="293.31"/>
<g>
	<path class="st1" d="M107.13,319.6l-6.53-38.67l4.31-1.35c2.89-0.82,5.8-1.66,8.72-2.53c2.92-0.86,4.46-1.32,4.62-1.35l7.65,40.55
		c0.67-2.44,1.53-5.6,2.58-9.48c1.05-3.88,2.12-7.72,3.23-11.53c1.1-3.81,2.16-7.44,3.17-10.89c1.01-3.46,1.84-6.34,2.49-8.66
		c0.66-2.31,1.01-3.52,1.08-3.62l18.8,3.71l-17.06,41.36c0.38,0.25,3.57,2.08,9.56,5.47c5.99,3.39,11.78,6.7,17.37,9.93
		c5.59,3.23,8.3,4.85,8.14,4.88c-0.43,0.33-3.12,2.99-8.07,7.97s-7.53,7.61-7.72,7.9l-10.98-9.21
		c-11.12-9.51-16.84-14.44-17.15-14.79c0.03,0.98,0.19,5.36,0.5,13.14c0.55,2.37,1.19,5.38,1.91,9.03l1.44,7.26l-20.84,4.12
		c-0.41-2.06-0.69-3.7-0.85-4.91l-2.09-12.45c-2-5.95-3.33-9.74-3.98-11.34l-16.78,32.77c-6.28-2.97-13.08-5.87-20.4-8.71
		c0.69-1.12,2.97-4.26,6.86-9.4c3.89-5.14,7.75-10.15,11.56-15.03c3.82-4.88,5.79-7.41,5.92-7.6l-31.52-31.75l15.97-10.58
		C81,286.74,90.37,298.66,107.13,319.6z"/>
	<path class="st1" d="M200.04,345.88l-17.5,3.46c-0.24-1.19-2.79-14.6-7.65-40.24c-4.87-25.64-7.47-39.33-7.81-41.08l18.36-5.36
		c0.79,3.97,2.46,13.39,5.03,28.26c2.57,14.88,4,23.03,4.28,24.45l13.73-55.67l14.22-4.42c0.31,1.18,1.32,6.05,3.02,14.62
		c1.19,6.03,3.2,16.4,6.03,31.1c2.82,14.7,4.69,24.31,5.58,28.84c0.33,1.67,0.7,3.45,1.12,5.35c0.42,1.9,0.63,2.89,0.65,2.96
		l-17.38,3.44c-3.77-19.87-6.61-34.69-8.55-44.46c-1.22,5.11-3.53,14.04-6.95,26.8C202.8,336.7,200.74,344.01,200.04,345.88z"/>
	<path class="st1" d="M279.75,304.76c-1.11-5.63-5.68-7.66-13.7-6.07c-1.11,0.22-2.33,0.54-3.64,0.97l-2.07,0.78l-3.65-18.46
		l2.07-0.16c1.4-0.03,2.65-0.15,3.76-0.37c3.02-0.6,5.65-1.86,7.91-3.79c2.26-1.93,3.11-4.28,2.56-7.06
		c-1.07-5.4-4.26-7.57-9.58-6.52c-3.33,0.66-6.78,2.56-10.32,5.69c-3.55,3.13-6.04,6.49-7.47,10.08l-12.15-15.78
		c2.04-3.04,5.56-6.52,10.56-10.44c5-3.92,10.87-6.54,17.62-7.88c8.25-1.63,15.04-0.69,20.36,2.84c5.32,3.53,8.64,8.67,9.98,15.41
		c1.66,8.41-0.76,15.78-7.26,22.1c8.39,3.21,13.41,9.02,15.08,17.43c1.33,6.75,0.24,12.78-3.29,18.09
		c-3.53,5.32-9.3,8.77-17.31,10.35c-6.83,1.35-13.36,1.18-19.59-0.52c-6.23-1.69-10.87-3.56-13.91-5.6l5.23-19.22
		c2.69,2.77,6.27,4.93,10.75,6.47c4.47,1.55,8.37,1.99,11.71,1.33c2.3-0.46,4.07-1.53,5.3-3.21
		C279.91,309.53,280.27,307.38,279.75,304.76z"/>
	<path class="st1" d="M298.85,241.84c-0.02-0.08,1.32-0.51,4.01-1.29c2.69-0.78,5.44-1.59,8.24-2.43c2.8-0.84,4.27-1.32,4.42-1.43
		c1.98,9.59,4.87,23.99,8.67,43.2c8.22-1.79,14.38-3.21,18.46-4.27c-0.49-2.87-1.31-7.66-2.47-14.36
		c-1.16-6.7-1.94-11.45-2.33-14.26l-2.12-12.57l1.05-0.33c0.78-0.24,1.87-0.56,3.28-0.96c1.4-0.4,2.73-0.81,3.96-1.22l8.41-2.53
		l16.79,83.04l-19.76,3.91c-0.57-2.86-0.97-5.13-1.22-6.81c-1.72-10.38-2.62-15.77-2.7-16.17c-1.78,0.19-4.79,0.62-9.02,1.29
		c-4.24,0.67-7.24,1.15-9,1.41c2.06,10.4,3.66,18.29,4.8,23.67l-19.76,3.91c0.06-0.09-2.15-13.49-6.65-40.19
		C301.41,256.74,299.06,242.87,298.85,241.84z"/>
	<path class="st1" d="M425.55,301.28l-49.53,9.8l-6.58-39.53c-4.42-26.51-6.67-39.96-6.75-40.36c0.55-0.11,3.66-0.99,9.31-2.65
		c5.65-1.65,12.34-3.59,20.07-5.82c7.72-2.23,13.79-3.9,18.18-5.02c0.09,1.3,0.82,8.33,2.19,21.09l-29.48,4.84
		c0.47,2.38,1.19,5.91,2.15,10.58c0.97,4.68,1.69,8.2,2.16,10.58l18.27-5.84c1.32,6.67,2.28,11.72,2.87,15.15l-12.5,2.47
		c-0.79,0.16-1.85,0.35-3.17,0.56c-1.32,0.22-2.29,0.39-2.93,0.52l3.01,15.24l30.11-9.79L425.55,301.28z"/>
</g>
<g>
	<path class="st1" d="M181.2,358.78c6.17-1.22,11.49-1.53,15.95-0.92c4.46,0.61,7.75,1.52,9.89,2.72c0.01,2.35,0.1,7.84,0.28,16.48
		c-8.65-2.17-15.76-2.71-21.33-1.61c-9.39,1.86-13,8.31-10.81,19.35c1.03,5.22,3.01,8.94,5.93,11.16c2.92,2.22,6.56,2.9,10.91,2.04
		c5.13-1.01,11.63-4.24,19.5-9.68l6.23,15.03c-0.63,0.94-1.68,2.03-3.15,3.27c-1.47,1.24-4.05,2.72-7.73,4.44
		c-3.68,1.72-7.87,3.05-12.56,3.98c-8.87,1.75-16.55,0.38-23.04-4.12c-6.49-4.5-10.98-12.1-13.46-22.82
		c-1.98-10.9-0.83-19.74,3.43-26.5C165.5,364.85,172.15,360.57,181.2,358.78z"/>
	<path class="st1" d="M214.49,352.34l8.95-2.04l19.88-4.34l28.85-6.25l0.93,4.7l2.27,11.48l-19.86,5.15
		c2.05,10.35,5.29,26.29,9.73,47.82l-20.61,4.08l-7.46-47.32l-0.13,0.03l-19.86,5.15L214.49,352.34z"/>
	<path class="st1" d="M284.28,372.83c-1.82-9.22-0.29-17.68,4.61-25.38c4.89-7.7,11.69-12.41,20.38-14.13
		c8.7-1.72,16.77,0.05,24.23,5.31s12.1,12.5,13.92,21.71c1.81,9.13,0.26,17.55-4.63,25.25c-4.89,7.7-11.69,12.41-20.38,14.13
		c-8.7,1.72-16.77-0.05-24.23-5.31C290.71,389.15,286.08,381.96,284.28,372.83z M301.18,369.89c0.89,4.52,3.1,8.04,6.63,10.55
		c3.52,2.51,7.42,3.35,11.68,2.5c4.44-0.88,7.83-3.15,10.17-6.82c2.35-3.67,3.07-7.77,2.18-12.29c-0.93-4.7-3.19-8.34-6.77-10.93
		c-3.58-2.59-7.59-3.44-12.03-2.57c-4.26,0.84-7.53,3.16-9.81,6.95C300.95,361.08,300.27,365.28,301.18,369.89z"/>
	<path class="st1" d="M366.87,322.33c0.21,1.5,0.77,4.59,1.7,9.29c3.41-7.45,8.93-11.93,16.59-13.45
		c6.96-1.38,13.55,0.66,19.78,6.12s10.25,12.75,12.05,21.88c1.82,9.22,0.88,17.56-2.84,25.03c-3.72,7.47-9.15,11.91-16.28,13.32
		c-7.74,1.53-14.43-0.31-20.07-5.52l7.59,34.28l-19.96,3.95c-1.6-8.09-4.52-22.96-8.76-44.62c-4.24-21.66-7.15-36.49-8.73-44.49
		c1.11-0.31,3.9-1.18,8.36-2.6C360.78,324.08,364.29,323.03,366.87,322.33z M372.2,355.44c0.88,4.43,2.99,7.93,6.34,10.47
		c3.35,2.55,6.98,3.43,10.89,2.66c3.91-0.77,6.93-2.97,9.06-6.6c2.13-3.63,2.75-7.66,1.88-12.1c-0.93-4.7-3.07-8.34-6.43-10.93
		c-3.36-2.59-6.99-3.5-10.91-2.72c-3.91,0.77-6.93,3-9.05,6.67S371.27,350.74,372.2,355.44z"/>
	<path class="st1" d="M448.38,372.63l-18.39,3.64c-0.21-1.04-2.06-11.56-5.57-31.57c-3.5-20-5.4-30.74-5.69-32.22l17.98-5.05
		c0.57,2.87,1.83,9.83,3.79,20.87c1.96,11.04,3.2,17.91,3.74,20.61l17.49-45.21l15.16-4.22c1.46,6.49,3.67,17.51,6.61,33.06
		c2.94,15.55,5.02,26.18,6.24,31.91l-18.26,3.61c-1.55-7.83-3.75-19.41-6.6-34.75c-0.51,1.1-3.18,7.57-8.02,19.41
		C452.01,364.57,449.19,371.21,448.38,372.63z"/>
	<path class="st1" d="M515.17,359.42l-18.39,3.64c-0.21-1.04-2.06-11.56-5.57-31.57c-3.5-20-5.4-30.74-5.69-32.22l17.98-5.05
		c0.57,2.87,1.83,9.83,3.79,20.87c1.96,11.04,3.2,17.91,3.74,20.61l17.49-45.21l15.16-4.22c1.46,6.49,3.67,17.51,6.61,33.06
		c2.94,15.55,5.02,26.18,6.24,31.91l-18.26,3.61c-1.55-7.83-3.75-19.41-6.6-34.75c-0.51,1.1-3.18,7.57-8.02,19.41
		C518.79,351.36,515.97,358,515.17,359.42z"/>
</g>
<path class="st2" d="M165.32,217.6c9.82-3.81,20.04-6.24,30.29-8.57c4.93-1.12,7.5-4.23,6.8-9.35c-0.66-4.9-4.61-7.47-10.03-6.76
	c-1.83,0.24-3.63,0.77-5.43,1.19c-40.4,9.36-75.59,27.73-101.09,61.26c-3.19,4.19-6.07,8.43-8.64,12.68
	c-3.3,5.46,0.71,12.43,7.09,12.43h0c2.94,0,5.65-1.58,7.13-4.12C108.17,247.65,134.27,229.65,165.32,217.6z"/>
<path class="st2" d="M287.97,440.44c-23.32,7.36-47.29,9.34-71.58,7.81c-6.36-0.4-9.71,2.1-11.99,8.09
	c-5.7,15.05-15.32,27.26-28.88,36.12h0c-6.38,4.16-14.38-2.12-11.9-9.31c3.52-10.22,4.72-18.49,4.93-28.81
	c0.23-11.34-3.22-18.3-14.84-23.46c-26.44-11.73-48.9-27.99-62.7-53.12c-1.78-3.23-5.54-4.83-9.1-3.86l-0.32,0.09
	c-5.03,1.37-7.4,7.08-4.88,11.65c1.01,1.83,2.07,3.66,3.17,5.48c15.4,25.37,38.89,42.44,65.78,54.64c4.28,1.94,6.11,4.08,6.07,9.13
	c-0.18,19.52-6.83,36.28-20.01,50.52c-2.79,3.02-4,6.35-2.36,10.17c1.56,3.63,4.68,4.9,8.58,4.78
	c36.28-1.09,61.71-19.27,78.73-50.34c1.85-3.37,3.33-4.73,7.3-4.62c32.02,0.9,62.78-4.7,91.9-18.48
	c14.03-6.64,27.06-14.63,38.72-24.54c2.81-2.39,3.53-6.44,1.79-9.69h0c-2.35-4.39-8.16-5.56-11.97-2.36
	C327.92,424.13,308.89,433.84,287.97,440.44z"/>
<path class="st2" d="M245.22,188.41c21.9-33.43,53.53-52.47,91.2-62.49c35.12-9.35,70.67-9.46,104.83,2.8
	c38.91,13.97,72.63,35.6,89.97,75.87c5.54,12.88,9.17,26.49,7.56,40.33c-1.14,9.8-3.21,19.22-6.34,28.19
	c-1.62,4.65,1.19,9.67,6,10.72l0.14,0.03c4.08,0.89,8.19-1.41,9.54-5.37c4.96-14.5,7.15-29.91,6.85-46.01
	c-0.35-18.81-7.52-36.22-17.67-52.15c-26.35-41.31-66.86-61.04-112.25-72.99c-13-3.42-26.49-4.08-42.53-4.03
	c-9.61-0.16-21.75,0.81-33.77,2.9c-9.75,1.7-19.34,4.08-28.76,7.19c-39.66,13.13-71.74,36.28-92.96,72.63
	c-9.39,16.08-13.79,33.31-14.24,50.94c-0.13,5.17,4.54,9.14,9.63,8.26c0.06-0.01,0.11-0.02,0.17-0.03c3.82-0.67,6.62-3.91,6.79-7.78
	C230.13,220.25,235.2,203.71,245.22,188.41z"/>
<path class="st2" d="M482.94,421.85c-0.94-1.1-1.83-2.24-2.78-3.33c-6.97-8.02-11.88-16.78-14.81-26.31
	c-1.18-3.82-4.88-6.27-8.83-5.71l-0.48,0.07c-4.89,0.69-8.02,5.61-6.54,10.33c1.45,4.65,3.27,9.23,5.47,13.74l0,0
	c1.07,2.21-1.11,4.61-3.4,3.73c-11.37-4.37-20.62-10.86-28.17-19.54c-1.74-2-4.34-3.02-6.96-2.65h0c-6.11,0.87-8.74,8.16-4.67,12.79
	c4.08,4.63,8.56,8.96,13.47,12.98c15.12,12.38,32.5,17.25,51.53,17.73c3.35,0.08,6.04-1.52,7.47-4.6
	C485.75,427.81,485.35,424.65,482.94,421.85z"/>
</svg>
