<?xml version="1.0" encoding="utf-8"?>
<!-- Generator: Adobe Illustrator 25.1.0, SVG Export Plug-In . SVG Version: 6.00 Build 0)  -->
<svg version="1.1" id="Слой_1" xmlns="http://www.w3.org/2000/svg" xmlns:xlink="http://www.w3.org/1999/xlink" x="0px" y="0px"
	 viewBox="0 0 18.62 20.05" style="enable-background:new 0 0 18.62 20.05;" xml:space="preserve">
<path d="M15.6,13.8c-0.7-1.6-2.24-2.66-3.99-2.75l-0.07,1.5c1.17,0.06,2.21,0.78,2.69,1.85L15.6,13.8z M12.57,17.56
	c1.01,0,1.98-0.4,2.6-1.07c0.65-0.69,0.93-1.71,0.41-2.72l-1.34,0.68c0.19,0.37,0.12,0.71-0.17,1.02c-0.31,0.34-0.87,0.59-1.51,0.59
	V17.56z M5.63,17.56h6.94v-1.5H5.63V17.56z M2.62,13.77c-0.52,1.02-0.24,2.03,0.41,2.72c0.63,0.67,1.59,1.07,2.6,1.07v-1.5
	c-0.63,0-1.19-0.26-1.51-0.59c-0.29-0.31-0.36-0.65-0.17-1.02L2.62,13.77z M6.59,11.06C4.84,11.14,3.3,12.21,2.6,13.8l1.37,0.6
	c0.47-1.08,1.51-1.79,2.69-1.85L6.59,11.06z M11.58,11.06H6.62v1.5h4.95V11.06z M14.91,14.11l-0.69,0.3
	c0.01,0.01,0.01,0.03,0.02,0.04L14.91,14.11z M3.29,14.11l0.67,0.34c0.01-0.01,0.01-0.03,0.02-0.04L3.29,14.11z M6.62,11.81v-0.75
	c-0.01,0-0.02,0-0.04,0L6.62,11.81z M11.58,11.81l0.04-0.75c-0.01,0-0.02,0-0.04,0V11.81z"/>
<path d="M10.69,4.21c0.42,0.42,0.66,0.99,0.66,1.59h1.5c0-0.99-0.4-1.95-1.1-2.65L10.69,4.21z M9.1,3.56c0.6,0,1.17,0.24,1.59,0.66
	l1.06-1.06c-0.7-0.7-1.66-1.1-2.65-1.1V3.56z M6.85,5.81c0-1.24,1.01-2.25,2.25-2.25v-1.5c-2.07,0-3.75,1.68-3.75,3.75H6.85z
	 M9.1,8.06c-1.24,0-2.25-1.01-2.25-2.25h-1.5c0,2.07,1.68,3.75,3.75,3.75V8.06z M11.35,5.81c0,1.24-1.01,2.25-2.25,2.25v1.5
	c2.07,0,3.75-1.68,3.75-3.75H11.35z M11.22,3.68l-0.53,0.53L11.22,3.68z"/>
</svg>
