<?xml version="1.0" encoding="utf-8"?>
<!-- Generator: Adobe Illustrator 25.1.0, SVG Export Plug-In . SVG Version: 6.00 Build 0)  -->
<svg version="1.1" id="Isolation_Mode" xmlns="http://www.w3.org/2000/svg" xmlns:xlink="http://www.w3.org/1999/xlink" x="0px"
	 y="0px" viewBox="0 0 122.88 122.88" style="enable-background:new 0 0 122.88 122.88;" xml:space="preserve">
<path fill="#fff" d="M61.75,62.76c10.28,0,18.62-8.34,18.62-18.62c0-10.28-8.33-18.62-18.62-18.62c-10.28,0-18.62,8.33-18.62,18.62
	C43.13,54.42,51.46,62.76,61.75,62.76z M61.75,36.44c4.25,0,7.7,3.44,7.7,7.69c0,4.26-3.45,7.7-7.7,7.7s-7.69-3.45-7.69-7.7
	S57.51,36.44,61.75,36.44z"/>
<path fill="#fff" d="M42.4,72.33c0.24,0.19,4.89,3.81,12.55,5.3L44.29,88.78c-1.94,2.01-1.88,5.22,0.13,7.16c0.98,0.95,2.25,1.42,3.51,1.42
	c1.33,0,2.65-0.52,3.64-1.55l9.92-10.57l10.92,10.64c1.98,1.98,5.18,1.97,7.16-0.01c1.98-1.98,1.97-5.18-0.01-7.16L68.32,77.57
	c7.45-1.52,11.92-5.05,12.16-5.24c2.18-1.75,2.53-4.93,0.78-7.12c-1.75-2.18-4.94-2.53-7.12-0.78c-0.04,0.04-4.81,3.69-12.65,3.7
	c-7.84-0.01-12.7-3.66-12.75-3.7c-2.18-1.75-5.37-1.4-7.12,0.78C39.87,67.39,40.22,70.58,42.4,72.33z"/>
</svg>
