<?xml version="1.0" encoding="utf-8"?>
<!-- Generator: Adobe Illustrator 25.1.0, SVG Export Plug-In . SVG Version: 6.00 Build 0)  -->
<svg version="1.1" id="Layer_1" xmlns="http://www.w3.org/2000/svg" xmlns:xlink="http://www.w3.org/1999/xlink" x="0px" y="0px"
	 viewBox="0 0 26.14 27.12" style="enable-background:new 0 0 26.14 27.12;" xml:space="preserve">
<path d="M21.82,13.56c0-0.99-0.58-1.89-1.48-2.31l-0.63,1.36c0.37,0.17,0.61,0.54,0.61,0.95H21.82z M20.34,15.87
	c0.9-0.42,1.48-1.32,1.48-2.31h-1.5c0,0.41-0.24,0.78-0.61,0.95L20.34,15.87z M8.97,21.6l11.39-5.74l-0.67-1.34L8.29,20.26
	L8.97,21.6z M7.34,21.66c0.54,0.25,1.16,0.22,1.67-0.08l-0.76-1.3c-0.08,0.05-0.19,0.05-0.28,0.01L7.34,21.66z M6.33,20.33
	c0.1,0.58,0.48,1.08,1.01,1.33l0.64-1.36c-0.09-0.04-0.15-0.12-0.17-0.22L6.33,20.33z M6.47,19.55c-0.09,0.2-0.15,0.41-0.15,0.62
	l1.5,0.05c0-0.01,0-0.02,0.01-0.03L6.47,19.55z M8.63,14.35l-2.17,5.24l1.39,0.57l2.17-5.24L8.63,14.35z M8.74,13.55
	c-0.01,0.29-0.05,0.59-0.14,0.87l1.43,0.45c0.13-0.42,0.2-0.85,0.21-1.28L8.74,13.55z M8.6,12.71c0.09,0.28,0.14,0.57,0.14,0.87
	l1.5-0.03c-0.01-0.43-0.08-0.87-0.21-1.28L8.6,12.71z M6.46,7.53l2.17,5.24l1.39-0.57L7.84,6.96L6.46,7.53z M6.32,6.95
	c0.01,0.22,0.06,0.43,0.15,0.62l1.35-0.65c0-0.01-0.01-0.02-0.01-0.03L6.32,6.95z M7.34,5.47C6.8,5.72,6.43,6.21,6.33,6.8l1.48,0.25
	c0.02-0.1,0.08-0.18,0.17-0.22L7.34,5.47z M9.01,5.54C8.5,5.24,7.88,5.21,7.34,5.47l0.64,1.36c0.09-0.04,0.19-0.04,0.28,0.01
	L9.01,5.54z M20.36,11.26L8.97,5.52L8.29,6.86l11.39,5.74L20.36,11.26z M20.02,15.19l-0.32-0.68c-0.01,0-0.01,0.01-0.02,0.01
	L20.02,15.19z M8.63,20.93l-0.34-0.67c-0.01,0.01-0.03,0.01-0.04,0.02L8.63,20.93z M7.66,20.98l-0.32,0.68v0L7.66,20.98z M7.07,20.2
	l-0.75-0.03c0,0.05,0,0.1,0.01,0.15L7.07,20.2z M7.15,19.88l0.68,0.32c0.01-0.01,0.01-0.02,0.02-0.04L7.15,19.88z M9.32,14.64
	l0.69,0.29c0.01-0.02,0.02-0.04,0.02-0.06L9.32,14.64z M9.49,13.56l0.75,0.02c0-0.01,0-0.02,0-0.03L9.49,13.56z M9.32,12.49
	l0.72-0.22c-0.01-0.02-0.01-0.04-0.02-0.06L9.32,12.49z M7.15,7.25l0.69-0.29C7.84,6.95,7.83,6.94,7.83,6.92L7.15,7.25z M7.07,6.92
	L6.33,6.8C6.32,6.85,6.32,6.9,6.32,6.95L7.07,6.92z M7.66,6.14L7.34,5.47L7.66,6.14z M8.63,6.19L8.25,6.84
	c0.01,0.01,0.03,0.02,0.04,0.02L8.63,6.19z"/>
</svg>
