<?xml version="1.0" encoding="utf-8"?>
<!-- Generator: Adobe Illustrator 25.1.0, SVG Export Plug-In . SVG Version: 6.00 Build 0)  -->
<svg version="1.1" id="Isolation_Mode" xmlns="http://www.w3.org/2000/svg" xmlns:xlink="http://www.w3.org/1999/xlink" x="0px"
	 y="0px" viewBox="0 0 2000 2000" style="enable-background:new 0 0 2000 2000;" xml:space="preserve">
<g>
	<path fill="#fff" d="M524.47,1192.96l-395.1-128.74c0,0-47.17-19.15-32.02-62.6c3.13-8.96,9.43-16.58,28.3-29.73
		c87.56-61.02,1620.52-612.02,1620.52-612.02s43.29-14.57,68.86-4.88c11.69,4.43,19.15,9.43,25.44,27.73
		c2.29,6.65,3.6,20.8,3.43,34.87c-0.12,10.15-1.37,19.55-2.29,34.3c-9.34,150.64-288.69,1274.94-288.69,1274.94
		s-16.71,65.79-76.61,68.03c-21.84,0.82-48.35-3.61-80.04-30.87c-117.52-101.1-523.76-374.11-613.52-434.15
		c-5.05-3.38-6.5-7.78-7.36-12.07c-1.26-6.33,5.62-14.18,5.62-14.18s707.36-628.77,726.18-694.75c1.46-5.11-4.01-7.64-11.43-5.43
		c-46.99,17.28-861.42,531.57-951.3,588.36C539.21,1195.1,524.47,1192.96,524.47,1192.96z"/>
</g>
</svg>
